<?xml version="1.0" encoding="UTF-8" standalone="no"?>
<svg
   id="visual"
   viewBox="0 0 900 169.87303"
   width="900"
   height="169.87303"
   version="1.1"
   sodipodi:docname="layered-waves-haikei.svg"
   inkscape:version="1.3.2 (091e20e, 2023-11-25)"
   xmlns:inkscape="http://www.inkscape.org/namespaces/inkscape"
   xmlns:sodipodi="http://sodipodi.sourceforge.net/DTD/sodipodi-0.dtd"
   xmlns="http://www.w3.org/2000/svg"
   xmlns:svg="http://www.w3.org/2000/svg">
  <defs
     id="defs5">
    <clipPath
       clipPathUnits="userSpaceOnUse"
       id="clipPath7">
      <rect
         style="fill:#000000;stroke-width:1.00117"
         id="rect7"
         width="904.53302"
         height="200.42671"
         x="-3.1407394"
         y="-3.147191" />
    </clipPath>
    <clipPath
       clipPathUnits="userSpaceOnUse"
       id="clipPath3">
      <rect
         style="fill:#000000;stroke-width:0.997878"
         id="rect3"
         width="932.15936"
         height="208.74055"
         x="-8.5128708"
         y="5.1602983" />
    </clipPath>
    <clipPath
       clipPathUnits="userSpaceOnUse"
       id="clipPath4">
      <rect
         style="fill:#000000;stroke-width:1.01555"
         id="rect5"
         width="922.24432"
         height="191.37659"
         x="-14.06177"
         y="-16.552788" />
    </clipPath>
    <clipPath
       clipPathUnits="userSpaceOnUse"
       id="clipPath6">
      <rect
         style="fill:#000000;stroke-width:1.01555"
         id="rect8"
         width="943.36224"
         height="191.60355"
         x="-18.911743"
         y="11.099173" />
    </clipPath>
  </defs>
  <sodipodi:namedview
     id="namedview5"
     pagecolor="#ffffff"
     bordercolor="#999999"
     borderopacity="1"
     inkscape:showpageshadow="2"
     inkscape:pageopacity="0"
     inkscape:pagecheckerboard="0"
     inkscape:deskcolor="#d1d1d1"
     inkscape:zoom="0.73459516"
     inkscape:cx="429.48826"
     inkscape:cy="52.40982"
     inkscape:window-width="1472"
     inkscape:window-height="876"
     inkscape:window-x="20"
     inkscape:window-y="58"
     inkscape:window-maximized="0"
     inkscape:current-layer="visual" />
  <g
     id="g6"
     transform="matrix(1,0,0,0.9696066,-0.19920506,-11.475877)"
     clip-path="url(#clipPath6)">
    <rect
       x="-4.2599368e-08"
       y="-0.37409341"
       width="900"
       height="450"
       fill="#00192c"
       id="rect1" />
    <path
       d="m 0,137 13.7,3.7 c 13.6,3.6 41,11 68.3,8 27.3,-3 54.7,-16.4 81.8,-17.2 27.2,-0.8 54.2,10.8 81.4,11.7 27.1,0.8 54.5,-9.2 81.8,-4 27.3,5.1 54.7,25.5 82,27 27.3,1.5 54.7,-15.9 82,-24.9 27.3,-9 54.7,-9.6 82,-3 27.3,6.7 54.7,20.7 81.8,24.5 27.2,3.9 54.2,-2.5 81.4,-5.8 27.1,-3.3 54.5,-3.7 81.8,-3 27.3,0.7 54.7,2.3 68.3,3.2 L 900,158 V 0 H 886.3 C 872.7,0 845.3,0 818,0 790.7,0 763.3,0 736.2,0 709,0 682,0 654.8,0 627.7,0 600.3,0 573,0 545.7,0 518.3,0 491,0 463.7,0 436.3,0 409,0 381.7,0 354.3,0 327,0 299.7,0 272.3,0 245.2,0 218,0 191,0 163.8,0 136.7,0 109.3,0 82,0 54.7,0 27.3,0 13.7,0 H 0 Z"
       fill="#715df2"
       id="path1" />
    <path
       d="m 0,114 13.7,5.3 c 13.6,5.4 41,16 68.3,14 27.3,-2 54.7,-16.6 81.8,-20.8 27.2,-4.2 54.2,2.2 81.4,5.8 27.1,3.7 54.5,4.7 81.8,3.4 27.3,-1.4 54.7,-5 82,-2.4 27.3,2.7 54.7,11.7 82,18 27.3,6.4 54.7,10 82,2.4 27.3,-7.7 54.7,-26.7 81.8,-34.7 27.2,-8 54.2,-5 81.4,1.5 27.1,6.5 54.5,16.5 81.8,22.5 27.3,6 54.7,8 68.3,9 l 13.7,1 V 0 H 886.3 C 872.7,0 845.3,0 818,0 790.7,0 763.3,0 736.2,0 709,0 682,0 654.8,0 627.7,0 600.3,0 573,0 545.7,0 518.3,0 491,0 463.7,0 436.3,0 409,0 381.7,0 354.3,0 327,0 299.7,0 272.3,0 245.2,0 218,0 191,0 163.8,0 136.7,0 109.3,0 82,0 54.7,0 27.3,0 13.7,0 H 0 Z"
       fill="#af4cdc"
       id="path2" />
    <path
       d="m 0,104 13.7,-2.7 c 13.6,-2.6 41,-8 68.3,-5.3 27.3,2.7 54.7,13.3 81.8,18 27.2,4.7 54.2,3.3 81.4,0.7 27.1,-2.7 54.5,-6.7 81.8,-14 27.3,-7.4 54.7,-18 82,-22.7 27.3,-4.7 54.7,-3.3 82,0.8 27.3,4.2 54.7,11.2 82,14.9 27.3,3.6 54.7,4 81.8,0.6 C 682,91 709,84 736.2,80 c 27.1,-4 54.5,-5 81.8,-5 27.3,0 54.7,1 68.3,1.5 L 900,77 V 0 H 886.3 C 872.7,0 845.3,0 818,0 790.7,0 763.3,0 736.2,0 709,0 682,0 654.8,0 627.7,0 600.3,0 573,0 545.7,0 518.3,0 491,0 463.7,0 436.3,0 409,0 381.7,0 354.3,0 327,0 299.7,0 272.3,0 245.2,0 218,0 191,0 163.8,0 136.7,0 109.3,0 82,0 54.7,0 27.3,0 13.7,0 H 0 Z"
       fill="#d73ac1"
       id="path3" />
    <path
       d="m 0,79 13.7,0.3 c 13.6,0.4 41,1 68.3,-1.5 27.3,-2.5 54.7,-8.1 81.8,-9.1 27.2,-1 54.2,2.6 81.4,3 27.1,0.3 54.5,-2.7 81.8,-2.9 27.3,-0.1 54.7,2.5 82,6 27.3,3.5 54.7,7.9 82,9.5 27.3,1.7 54.7,0.7 82,-1.8 C 600.3,80 627.7,76 654.8,69.8 682,63.7 709,55.3 736.2,50.5 763.3,45.7 790.7,44.3 818,47.2 845.3,50 872.7,57 886.3,60.5 L 900,64 V 0 H 886.3 C 872.7,0 845.3,0 818,0 790.7,0 763.3,0 736.2,0 709,0 682,0 654.8,0 627.7,0 600.3,0 573,0 545.7,0 518.3,0 491,0 463.7,0 436.3,0 409,0 381.7,0 354.3,0 327,0 299.7,0 272.3,0 245.2,0 218,0 191,0 163.8,0 136.7,0 109.3,0 82,0 54.7,0 27.3,0 13.7,0 H 0 Z"
       fill="#f12fa3"
       id="path4" />
    <path
       d="m 0,55 13.7,-6.2 c 13.6,-6.1 41,-18.5 68.3,-19 27.3,-0.5 54.7,10.9 81.8,11.5 C 191,42 218,32 245.2,31.5 272.3,31 299.7,40 327,44.8 c 27.3,4.9 54.7,5.5 82,0.4 27.3,-5.2 54.7,-16.2 82,-16.5 27.3,-0.4 54.7,10 82,15.6 27.3,5.7 54.7,6.7 81.8,2 27.2,-4.6 54.2,-15 81.4,-18.5 27.1,-3.5 54.5,-0.1 81.8,0.9 27.3,1 54.7,-0.4 68.3,-1 L 900,27 V 0 H 886.3 C 872.7,0 845.3,0 818,0 790.7,0 763.3,0 736.2,0 709,0 682,0 654.8,0 627.7,0 600.3,0 573,0 545.7,0 518.3,0 491,0 463.7,0 436.3,0 409,0 381.7,0 354.3,0 327,0 299.7,0 272.3,0 245.2,0 218,0 191,0 163.8,0 136.7,0 109.3,0 82,0 54.7,0 27.3,0 13.7,0 H 0 Z"
       fill="#ff3485"
       id="path5" />
  </g>
</svg>
