<?xml version="1.0" encoding="UTF-8" standalone="no"?>
<svg
   version="1.1"
   id="Layer_1"
   x="0px"
   y="0px"
   width="457.43936"
   viewBox="0 0 457.43936 467.35693"
   enable-background="new 0 0 1024 1024"
   xml:space="preserve"
   sodipodi:docname="Design_a_minimalist_logo_for_a_software_developer__converted (1).svg"
   inkscape:version="1.3.2 (091e20e, 2023-11-25)"
   height="467.35693"
   xmlns:inkscape="http://www.inkscape.org/namespaces/inkscape"
   xmlns:sodipodi="http://sodipodi.sourceforge.net/DTD/sodipodi-0.dtd"
   xmlns="http://www.w3.org/2000/svg"
   xmlns:svg="http://www.w3.org/2000/svg"><defs
   id="defs8" /><sodipodi:namedview
   id="namedview8"
   pagecolor="#ffffff"
   bordercolor="#999999"
   borderopacity="1"
   inkscape:showpageshadow="2"
   inkscape:pageopacity="0"
   inkscape:pagecheckerboard="0"
   inkscape:deskcolor="#d1d1d1"
   inkscape:zoom="0.81183113"
   inkscape:cx="191.5423"
   inkscape:cy="106.54925"
   inkscape:window-width="1472"
   inkscape:window-height="876"
   inkscape:window-x="20"
   inkscape:window-y="58"
   inkscape:window-maximized="0"
   inkscape:current-layer="Layer_1" />

<path
   fill="#f1f4f7"
   opacity="1"
   stroke="none"
   d="m 92.928134,347.70611 c 8.088746,18.17316 24.341676,32.5506 45.892756,29.97968 5.69599,-0.67945 11.15174,-3.06269 16.13575,-7.48224 11.77813,-10.44428 12.3619,-24.03235 12.4158,-37.66382 0.22015,-55.71173 -0.0109,-111.42532 -0.0852,-167.13825 -0.0306,-22.9869 -0.11465,-45.97378 -0.11904,-68.960687 -0.003,-18.15183 0.14865,-36.30396 0.0783,-54.45535 -0.0211,-5.43323 -0.81274,-10.86588 -0.78347,-16.29627 0.0264,-4.89462 0.1394,-9.91079 1.20916,-14.64871 1.53723,-6.8080691 6.77805,-10.52733908 13.40598,-10.97530908 9.4711,-0.6402 19.99283,3.33471998 19.83706,16.49547908 -0.2741,23.15827 -0.004,46.32245 -0.12481,69.48328 -0.0527,10.08133 -0.7619,20.161217 -0.73633,30.240657 0.083,32.68765 0.45898,65.37454 0.55292,98.06223 0.12237,42.60009 0.2417,85.20141 0.025,127.80053 -0.0738,14.50635 -1.50708,29.07764 -9.84375,41.5644 -6.12756,9.17797 -14.69122,16.06353 -24.32666,21.54107 -8.0481,4.5752 -16.71509,6.74402 -25.90094,6.45984 -8.91772,-0.27576 -18.03378,0.0458 -26.6785,-1.74731 -10.43918,-2.16535 -19.436636,-8.03638 -27.751246,-14.90564 -15.06607,-12.44709 -23.18286,-28.67756 -28.21161,-47.22437 -2.64178,-9.74335 -2.6445,-48.59609 -2.67142,-58.35482 -0.0145,-5.23578 5.89896,-10.19727 12.21039,-10.54517 3.82095,-0.21063 7.66702,-0.15649 11.49429,-0.0163 5.51318,0.20178 10.6568,5.78094 10.63879,11.27136 -0.0309,9.41693 -0.084,48.07778 3.3368,57.51577 z"
   id="path2"
   sodipodi:nodetypes="cssccccsccsccsssscssssscscc" />
<path
   fill="#f2f4f7"
   opacity="1"
   stroke="none"
   d="m 254.83469,102.82641 c -0.0474,93.95706 -0.0882,187.41425 -0.0988,280.87146 -0.001,11.98419 -7.49554,19.11273 -18.01666,19.82666 -6.66504,0.45227 -15.60364,-8.66577 -15.48602,-16.24713 0.40594,-26.14911 0.0359,-52.30969 0.0309,-78.46588 -0.0184,-96.9603 0.13629,-193.92108 -0.20068,-290.880187 -0.0404,-11.6187391 9.14929,-20.0150191 21.23114,-17.10610908 7.97357,1.91976998 12.52978,7.35546998 12.53802,16.03597908 0.0271,28.48843 0.0151,56.9769 0.002,85.965207 z"
   id="path3" />
<path
   fill="#f0f4f6"
   opacity="1"
   stroke="none"
   d="m 289.57175,0.39746392 c 13.36572,-0.65357 20.32642,4.29860998 20.30475,18.61818908 -0.15546,102.800417 -0.0782,205.601167 -0.20374,308.401637 -0.008,6.45697 -0.21759,12.88141 -4.45801,18.74585 -3.88555,5.37366 -12.42559,7.08722 -17.76153,6.31757 -4.81806,-0.69507 -10.61005,-7.41291 -10.91339,-12.81562 -0.6416,-11.4262 -1.08765,-22.87963 -1.10077,-34.3225 -0.11041,-96.32718 -0.0889,-192.65446 -0.1723,-288.981697 -0.005,-6.0137 1.68475,-11.0142491 7.13501,-13.9683191 1.99835,-1.08313 4.50402,-1.23038 7.16998,-1.99510998 z"
   id="path4" />
<path
   fill="#eff1f3"
   opacity="1"
   stroke="none"
   d="m 100.63806,425.45947 c 14.49192,6.25549 29.55142,6.88696 44.60367,7.7301 5.20117,0.29126 10.33881,0.67566 14.4137,5.10211 5.75598,6.2525 6.07876,15.56616 0.1933,21.75513 -4.63807,4.87726 -10.50186,7.54657 -16.98084,7.29364 -12.10617,-0.4726 -24.33237,-0.9057 -36.22699,-2.97455 -14.129666,-2.45752 -27.307646,-8.04578 -39.071346,-16.65094 -7.3136,-5.35004 -15.24866,-9.88184 -22.3345,-15.50006 -4.27146,-3.38672 -7.69748,-7.96216 -11.0614,-12.34284 -5.24768,-6.83374 -10.7872,-13.57885 -15.0019,-21.0401 -7.10409,-12.57629 -12.8359301,-25.79919 -15.9342901,-40.10321 -2.9444,-13.59314 -3.73265269,-56.74092 -2.9578727,-70.64602 0.22387,-4.01818 6.01699,-9.1806 11.0741198,-9.45593 3.81946,-0.20794 7.67899,-0.28149 11.48645,0.0189 7.41584,0.58496 11.52823,5.67182 12.01779,13.026 0.70365,10.57093 -0.09693,50.93612 2.506433,61.08645 2.50766,9.77704 7.23847,19.1673 12.15817,28.08429 3.93818,7.13782 8.96534,13.96619 14.70618,19.74219 6.75934,6.80084 14.56915,12.65484 22.39954,18.2536 4.02612,2.87878 9.08676,4.31067 14.009786,6.62128 z"
   id="path5"
   sodipodi:nodetypes="sssssscsssssscsssssss" />
<path
   fill="#eff1f3"
   opacity="1"
   stroke="none"
   d="m 402.51127,465.4414 c -53.62716,0.0225 -106.69747,0.0424 -159.76778,0.072 -9.48193,0.005 -17.67974,-5.54706 -20.19415,-13.72693 -1.59765,-5.19708 4.41869,-14.85455 11.60881,-17.914 3.16339,-1.34601 6.75994,-2.62488 10.16769,-2.64154 49.36096,-0.24115 98.72333,-0.23352 148.08518,-0.36188 9.39307,-0.0244 40.40319,-0.0546 49.79688,-0.19764 9.44739,-0.14392 14.88105,4.80201 14.86344,13.38782 -0.006,2.83173 -0.20302,5.67786 0.0427,8.49243 0.6967,7.98218 -6.92937,13.06604 -14.61229,13.22028 -5.93556,0.1192 -33.49523,-0.33566 -39.99041,-0.33056 z"
   id="path6"
   style="stroke-width:1.05544"
   sodipodi:nodetypes="sccscssccsss" />
<path
   fill="#ebeef1"
   opacity="1"
   stroke="none"
   d="m 307.90346,374.21337 c 38.63185,-0.004 98.51854,0.17058 136.60137,0.18978 9.0474,0.004 12.81525,3.28735 12.8114,11.0094 -0.001,2.99811 -0.2504,6.01178 0.0187,8.99145 1.02282,11.32355 -5.53028,14.76905 -16.95881,14.9751 -36.89476,0.66492 -95.61993,0.16367 -132.52957,-0.009 -4.97018,-0.0232 -10.47041,-0.46301 -14.79034,-2.31354 -10.42556,-4.46594 -11.38979,-13.95184 -9.43329,-19.62689 2.67405,-7.7558 11.71895,-12.47681 21.98304,-13.20727 0.57898,-0.0412 1.16543,-0.005 2.29747,-0.009 z"
   id="path7"
   style="stroke-width:1.08005"
   sodipodi:nodetypes="cccccsscscc" />

</svg>
